<?xml version="1.0" encoding="utf-8"?>
<!-- Generator: Adobe Illustrator 23.0.6, SVG Export Plug-In . SVG Version: 6.00 Build 0)  -->
<svg version="1.1" id="Layer_1" xmlns="http://www.w3.org/2000/svg" xmlns:xlink="http://www.w3.org/1999/xlink" x="0px" y="0px"
	 viewBox="0 0 648 238" style="enable-background:new 0 0 648 238;" xml:space="preserve">
<style type="text/css">
	.st0{fill:#FEE238;}
</style>
<path class="st0" d="M113,33.8C91.6,47,63.2,64.4,56,95.8c-11.1,48.4,34.2,102.7,81,124c47.6,21.6,97.2,9.4,131,1
	c56.1-13.9,63.5-33.9,117-38c18.3-1.4,47.5-3.6,83,6c33.1,9,44.1,21.6,70,19c2.1-0.2,42.3-4.8,52-31c9.6-26-17.2-55.8-21-60
	c-36.9-41.1-81.5-23.1-168-53c-66.8-23.1-55.2-37.7-109-51C271.9,7.9,187.3-11.8,113,33.8z"/>
</svg>
