<?xml version="1.0" standalone="no"?>
<svg
  width="600"
  height="600"
  viewBox="0 0 600 600"
  xmlns="http://www.w3.org/2000/svg"
>
  <g transform="translate(300,200)">
    <path d="M136.4,-197.9C170,-190.6,186,-141.4,180.6,-98.5C175.2,-55.6,148.5,-19.1,141.5,19.4C134.6,57.9,147.4,98.4,139.2,136.6C130.9,174.8,101.7,210.7,67,214.6C32.4,218.4,-7.6,190.3,-38.9,165.9C-70.3,141.5,-93,120.8,-114.6,98.1C-136.1,75.3,-156.7,50.4,-176.4,15.9C-196,-18.6,-214.9,-62.7,-205.9,-98.9C-196.9,-135.1,-160.1,-163.5,-121.1,-168.3C-82.2,-173.2,-41.1,-154.6,5.1,-162.6C51.4,-170.6,102.7,-205.2,136.4,-197.9Z" fill="#FEE238" />
  </g>
</svg>
    