<?xml version="1.0" encoding="utf-8"?>
<!-- Generator: Adobe Illustrator 23.0.6, SVG Export Plug-In . SVG Version: 6.00 Build 0)  -->
<svg version="1.1" id="Layer_1" xmlns="http://www.w3.org/2000/svg" xmlns:xlink="http://www.w3.org/1999/xlink" x="0px" y="0px"
	 viewBox="0 0 414 413.9" style="enable-background:new 0 0 414 413.9;" xml:space="preserve">
<style type="text/css">
	.st0{fill:#FEE238;}
	.st1{font-family:'MrEavesXLModOT-Bold';}
	.st2{font-size:289.5013px;}
</style>
<g transform="translate(300,200)">
	<path class="st0" d="M-193-193.8c55.1-14.3,69.9,11.6,131.4,5.9c77.8-7.2,77-17.8,116.4-9.3c35,7.6,51.7,38,55.2,73.9
		c4.3,44.8-22.3,84.7-29.6,124.8c-7.2,40.1,6.1,82.2-2.4,122c-7.6,35.5-41.3,67.6-75.2,81.2C-91,242.5-237,134.3-279.6,10
		c-8.1-23.6-34.2-99.7,5.2-154.1C-248.8-179.3-206.5-190.3-193-193.8z"/>
</g>
<text transform="matrix(1 0 0 1 130.9884 271.0064)" class="st1 st2">A</text>
</svg>
