<?xml version="1.0" encoding="utf-8"?>
<!-- Generator: Adobe Illustrator 23.0.6, SVG Export Plug-In . SVG Version: 6.00 Build 0)  -->
<svg version="1.1" id="Layer_1" xmlns="http://www.w3.org/2000/svg" xmlns:xlink="http://www.w3.org/1999/xlink" x="0px" y="0px"
	 viewBox="0 0 600 600" style="enable-background:new 0 0 600 600;" xml:space="preserve">
<style type="text/css">
	.st0{fill:#FEE238;}
</style>
<g transform="translate(300,300)">
	<path class="st0" d="M138.9-179.7c34.8,43.3,52.4,93.1,64.4,146.1C215.4,19.5,222,75.7,199,114.3c-23,38.5-75.6,59.4-129.4,80.6
		c-53.9,21.2-108.9,42.8-157.5,31.7c-48.6-11.2-90.8-55.1-105.4-103.7c-14.7-48.6-1.8-101.8,11.1-151.5c13-49.8,25.9-96,56.3-140.1
		c30.3-44.2,78.1-86.2,128-88.8C52.1-260,104.1-223.1,138.9-179.7z"/>
</g>
<g>
	<path d="M192.4,259c0-13.2,10.2-21.3,22-21.3c5.6,0,10.9,1.5,14.3,4.1v9.4c-3.3-2.8-7.6-4.8-12.5-4.8c-6.9,0-12.1,4.4-12.1,12.6
		c0,8.1,5.2,12.6,12.1,12.6c4.9,0,9.2-2,12.5-4.8v9.4c-3.4,2.6-8.8,4.1-14.3,4.1C202.6,280.3,192.4,272.2,192.4,259z"/>
	<path d="M249.8,280.5c-9.5,0-16.9-6.6-16.9-15.8c0-9,7.4-15.8,16.9-15.8c9.5,0,16.9,6.7,16.9,15.8
		C266.7,273.9,259.3,280.5,249.8,280.5z M249.8,256.3c-3.9,0-6.6,2.9-6.6,8.4c0,5.6,2.8,8.4,6.6,8.4c3.9,0,6.6-2.9,6.6-8.4
		C256.4,259.2,253.7,256.3,249.8,256.3z"/>
	<path d="M294.6,279.4l-0.3-4.1c-2.5,3.5-6.9,5-10.3,5c-7.9,0-13.6-6.4-13.6-15.5c0-9,5.7-15.5,13.6-15.5c3.3,0,7.2,1.2,9.8,4.3
		v-14.9h10.5v40.8H294.6z M287.6,256.7c-3.7,0-6.6,2.9-6.6,8s2.9,8,6.6,8s6.6-2.9,6.6-8S291.3,256.7,287.6,256.7z"/>
	<path d="M311.6,245.9v-7.3h10.5v7.3H311.6z M311.6,279.4v-29.4h10.5v29.4H311.6z"/>
	<path d="M329.2,250.1h9.9l0.3,5.2c1.8-3.9,6.3-6.1,10.3-6.1c7.8,0,10.9,5.4,10.9,12.7v17.5H350v-15.6c0-4.8-1.3-6.5-4.4-6.5
		c-3.3,0-5.9,3.1-5.9,6.5v15.5h-10.5V250.1z"/>
	<path d="M382.1,293.3c-4.5,0-10.1-1.6-13.6-3.5v-7.3c4.4,2.7,8.2,3.7,12.8,3.7c4.8,0,8-2.7,8-8.9V276c-2.6,3.1-6.5,4.3-9.8,4.3
		c-7.9,0-13.6-6.5-13.6-15.5c0-9.1,5.7-15.5,13.6-15.5c3.4,0,7.8,1.4,10.3,5l0.3-4.1h9.7v26.2C399.9,290.6,390.1,293.3,382.1,293.3z
		 M383.1,256.7c-3.7,0-6.6,2.9-6.6,8s2.9,8,6.6,8s6.6-2.9,6.6-8S386.8,256.7,383.1,256.7z"/>
	<path d="M194.3,320.2h17.4c10.3,0,15,6.2,15,13.7c0,7.5-4.7,13.7-15,13.7h-6.4V361h-11V320.2z M209.1,340.3c4.7,0,6.7-2.4,6.7-6.4
		c0-3.9-2-6.4-6.7-6.4h-3.7v12.8H209.1z"/>
	<path d="M241.4,346.4V361h-10.5v-29.4h9.9l0.3,5.2c1.5-3.3,5.4-6,10.4-6v9.8C246.3,339,241.4,341.3,241.4,346.4z"/>
	<path d="M270.9,362.1c-9.5,0-16.9-6.6-16.9-15.8c0-9,7.4-15.8,16.9-15.8c9.5,0,16.9,6.7,16.9,15.8
		C287.8,355.5,280.3,362.1,270.9,362.1z M270.9,337.9c-3.9,0-6.6,2.9-6.6,8.4c0,5.6,2.8,8.4,6.6,8.4c3.9,0,6.6-2.9,6.6-8.4
		C277.5,340.8,274.8,337.9,270.9,337.9z"/>
	<path d="M292.7,374.9c-3.5,0-6.7-1.4-7.5-2.2v-6.1c1.1,0.8,2.9,1.5,4.3,1.5c2.7,0,3.8-1.3,3.8-5.7v-30.7h10.5v31.8
		C303.7,370,299.9,374.9,292.7,374.9z M293.2,327.5v-7.3h10.5v7.3H293.2z"/>
	<path d="M337.7,347.5h-18c0.1,3.7,2.2,7.2,8.6,7.2c3.3,0,7.1-1.4,9.3-3.1v6.8c-2.7,2.1-6.9,3.5-12.5,3.5c-9.4,0-15.8-6.6-15.8-15.7
		c0-9.4,7.4-15.3,15.3-15.3c7.6,0,13.6,4.6,13.6,11.8C338.1,344.2,337.9,346.5,337.7,347.5z M329,342.6c0.7-3.1-0.7-5.8-4.2-5.8
		c-2.4,0-4.4,1.5-4.9,5.8H329z"/>
	<path d="M342.7,346.3c0-9.2,6.9-15.4,15.6-15.4c4.6,0,8.4,1.2,10.7,2.9v7.5c-2.4-2-5-2.7-7.8-2.7c-4.6,0-8,2.9-8,7.8
		c0,5,3.5,7.9,8,7.9c2.9,0,5.6-0.8,7.8-2.8v7.5c-2.3,1.8-6.2,2.9-10.7,2.9C349.6,361.9,342.7,355.5,342.7,346.3z"/>
	<path d="M388.5,338.4V361h-10.5v-22.6h-5.7v-6.7h5.7v-8h10.5v8h5.7v6.7H388.5z"/>
	<path d="M396.7,358.5l1.5-6.8c2.7,1.6,6.1,3.5,10.7,3.5c2.6,0,4.1-0.6,4.1-2.2c0-1.7-1.8-1.8-5-2.5c-8.2-1.5-10.4-5.8-10.4-10.3
		c0-4.7,3.7-9.4,12.2-9.4c4.8,0,9,1.8,10.9,2.8l-1.6,6.5c-3-1.7-6-2.5-8.8-2.5c-2.4,0-3.5,0.6-3.5,1.8c0,1.4,1.6,1.8,3.9,2.2
		c8.8,1.6,11.5,5.8,11.5,9.9c0,6.4-4.5,10.5-12.9,10.5C403.4,362,399,359.9,396.7,358.5z"/>
</g>
</svg>
