<?xml version="1.0" encoding="utf-8"?>
<!-- Generator: Adobe Illustrator 23.0.6, SVG Export Plug-In . SVG Version: 6.00 Build 0)  -->
<svg version="1.1" id="Layer_1" xmlns="http://www.w3.org/2000/svg" xmlns:xlink="http://www.w3.org/1999/xlink" x="0px" y="0px"
	 viewBox="0 0 600 600" style="enable-background:new 0 0 600 600;" xml:space="preserve">
<style type="text/css">
	.st0{fill:#FEE238;}
</style>
<g transform="translate(300,300)">
	<path class="st0" d="M86.1-104.1c38.5,25.9,91.1,41.5,117.1,78.4c26,36.7,25.2,94.5-7,118.7c-32.4,24.2-96.3,14.7-150.1,35.5
		s-97.6,71.8-141.2,75.9c-43.5,4-86.7-38.6-108.2-88.1c-21.4-49.4-21.1-105.4-13.7-162.4c7.5-57,22-114.9,59.1-141
		s96.6-20.4,138.6,0.3C22.7-165.9,47.4-130,86.1-104.1z"/>
</g>
<g>
	<path d="M182.5,223.6h9.3l17.1,40.8H198l-3.5-8.7h-15.1l-3.4,8.7h-10.7L182.5,223.6z M191.9,248.5l-4.9-12.9l-4.9,12.9H191.9z"/>
	<path d="M223.3,249.7v14.7h-10.5V235h9.9l0.3,5.2c1.5-3.3,5.4-6,10.4-6v9.8C228.2,242.3,223.3,244.7,223.3,249.7z"/>
	<path d="M252.7,241.7v22.6h-10.5v-22.6h-5.7V235h5.7v-8h10.5v8h5.7v6.7H252.7z"/>
	<path d="M169.3,305.2h17.4c10.3,0,15,6.2,15,13.7s-4.7,13.7-15,13.7h-6.4V346h-11V305.2z M184.1,325.2c4.7,0,6.7-2.4,6.7-6.4
		c0-3.9-2-6.4-6.7-6.4h-3.7v12.8H184.1z"/>
	<path d="M216.4,331.3V346h-10.5v-29.4h9.9l0.3,5.2c1.5-3.3,5.4-6,10.4-6v9.8C221.3,323.9,216.4,326.3,216.4,331.3z"/>
	<path d="M245.9,347.1c-9.5,0-16.9-6.6-16.9-15.8c0-9,7.4-15.8,16.9-15.8c9.5,0,16.9,6.7,16.9,15.8
		C262.8,340.5,255.3,347.1,245.9,347.1z M245.9,322.9c-3.9,0-6.6,2.9-6.6,8.4c0,5.6,2.8,8.4,6.6,8.4c3.9,0,6.6-2.9,6.6-8.4
		C252.5,325.8,249.8,322.9,245.9,322.9z"/>
	<path d="M267.6,359.8c-3.5,0-6.7-1.4-7.5-2.2v-6.1c1.1,0.8,2.9,1.5,4.3,1.5c2.7,0,3.8-1.3,3.8-5.7v-30.7h10.5v31.8
		C278.7,354.9,274.9,359.8,267.6,359.8z M268.2,312.5v-7.3h10.5v7.3H268.2z"/>
	<path d="M312.7,332.4h-18c0.1,3.7,2.2,7.2,8.6,7.2c3.3,0,7.1-1.4,9.3-3.1v6.8c-2.7,2.1-6.9,3.5-12.5,3.5c-9.4,0-15.8-6.6-15.8-15.7
		c0-9.4,7.4-15.3,15.3-15.3c7.6,0,13.6,4.6,13.6,11.8C313.1,329.1,312.9,331.4,312.7,332.4z M304,327.5c0.7-3.1-0.7-5.8-4.2-5.8
		c-2.4,0-4.4,1.5-4.9,5.8H304z"/>
	<path d="M317.7,331.2c0-9.2,6.9-15.4,15.6-15.4c4.6,0,8.4,1.2,10.7,2.9v7.5c-2.4-2-5-2.7-7.8-2.7c-4.6,0-8,2.9-8,7.8
		c0,5,3.5,7.9,8,7.9c2.9,0,5.6-0.8,7.8-2.8v7.5c-2.3,1.8-6.2,2.9-10.7,2.9C324.6,346.8,317.7,340.4,317.7,331.2z"/>
	<path d="M363.5,323.3V346h-10.5v-22.6h-5.7v-6.7h5.7v-8h10.5v8h5.7v6.7H363.5z"/>
	<path d="M371.7,343.5l1.5-6.8c2.7,1.6,6.1,3.5,10.7,3.5c2.6,0,4.1-0.6,4.1-2.2c0-1.7-1.8-1.8-5-2.5c-8.2-1.5-10.4-5.8-10.4-10.3
		c0-4.7,3.7-9.4,12.2-9.4c4.8,0,9,1.8,10.9,2.8l-1.6,6.5c-3-1.7-6-2.5-8.8-2.5c-2.4,0-3.5,0.6-3.5,1.8c0,1.4,1.6,1.8,3.9,2.2
		c8.8,1.6,11.5,5.8,11.5,9.9c0,6.4-4.5,10.5-12.9,10.5C378.4,346.9,374,344.8,371.7,343.5z"/>
</g>
</svg>
