<?xml version="1.0" encoding="utf-8"?>
<!-- Generator: Adobe Illustrator 23.0.6, SVG Export Plug-In . SVG Version: 6.00 Build 0)  -->
<svg version="1.1" id="Layer_1" xmlns="http://www.w3.org/2000/svg" xmlns:xlink="http://www.w3.org/1999/xlink" x="0px" y="0px"
	 viewBox="0 0 600 600" style="enable-background:new 0 0 600 600;" xml:space="preserve">
<style type="text/css">
	.st0{fill:#FEE238;}
</style>
<g transform="translate(300,300)">
	<path class="st0" d="M82.8-170.7c47.1,27.4,105.4,46.2,116.1,80.2c10.8,34-9.5,102.7-27.9,157.5c-18.3,54.8-34.8,95.7-63.5,127.2
		s-86.1,34.1-137.2,25.5c-51.2-8.6-96-28.5-119-61.9s-24.1-80.2-22.1-117.7s7-65.7,13.3-96.3c6.2-30.5,13.6-63.3,34-99.3
		c20.5-36.1,54-75.3,88.7-76.9C-0.1-234,35.7-198,82.8-170.7z"/>
</g>
<g>
	<path d="M215.2,243.4h15.9c16.8,0,23.7,9.2,23.7,20.4c0,11.2-6.9,20.4-23.7,20.4h-15.9V243.4z M230.3,275.7
		c9.2,0,13.3-3.7,13.3-11.9c0-8.2-4.1-11.9-13.3-11.9h-4v23.8H230.3z"/>
	<path d="M287.3,270.7h-18c0.1,3.7,2.2,7.2,8.6,7.2c3.3,0,7.1-1.4,9.3-3.1v6.8c-2.7,2.1-6.9,3.5-12.5,3.5c-9.4,0-15.8-6.6-15.8-15.7
		c0-9.4,7.4-15.3,15.3-15.3c7.6,0,13.6,4.6,13.6,11.8C287.8,267.3,287.6,269.7,287.3,270.7z M278.6,265.8c0.7-3.1-0.7-5.8-4.2-5.8
		c-2.4,0-4.4,1.5-4.9,5.8H278.6z"/>
	<path d="M291.9,281.7l1.5-6.8c2.7,1.6,6.1,3.5,10.7,3.5c2.6,0,4.1-0.6,4.1-2.2c0-1.7-1.8-1.8-5-2.5c-8.2-1.5-10.4-5.8-10.4-10.3
		c0-4.7,3.7-9.4,12.2-9.4c4.8,0,9,1.8,10.9,2.8l-1.6,6.5c-3-1.7-6-2.5-8.8-2.5c-2.4,0-3.5,0.6-3.5,1.8c0,1.4,1.6,1.8,3.9,2.2
		c8.8,1.6,11.5,5.8,11.5,9.9c0,6.4-4.5,10.5-12.9,10.5C298.7,285.2,294.3,283.1,291.9,281.7z"/>
	<path d="M322.5,250.7v-7.3H333v7.3H322.5z M322.5,284.2v-29.4H333v29.4H322.5z"/>
	<path d="M354.6,298.1c-4.5,0-10.1-1.6-13.6-3.5v-7.3c4.4,2.7,8.2,3.7,12.8,3.7c4.8,0,8-2.7,8-8.9v-1.3c-2.6,3.1-6.5,4.3-9.8,4.3
		c-7.9,0-13.6-6.5-13.6-15.5c0-9.1,5.7-15.5,13.6-15.5c3.4,0,7.8,1.4,10.3,5l0.3-4.1h9.7v26.2C372.4,295.4,362.6,298.1,354.6,298.1z
		 M355.6,261.5c-3.7,0-6.6,2.9-6.6,8s2.9,8,6.6,8s6.6-2.9,6.6-8S359.3,261.5,355.6,261.5z"/>
	<path d="M379.6,254.8h9.9l0.3,5.2c1.8-3.9,6.3-6.1,10.3-6.1c7.8,0,10.9,5.4,10.9,12.7v17.5h-10.5v-15.6c0-4.8-1.3-6.5-4.4-6.5
		c-3.3,0-5.9,3.1-5.9,6.5v15.5h-10.5V254.8z"/>
	<path d="M185.1,325h17.4c10.3,0,15,6.2,15,13.7c0,7.5-4.7,13.7-15,13.7h-6.4v13.5h-11V325z M199.9,345.1c4.7,0,6.7-2.4,6.7-6.4
		c0-3.9-2-6.4-6.7-6.4h-3.7v12.8H199.9z"/>
	<path d="M232.2,351.1v14.7h-10.5v-29.4h9.9l0.3,5.2c1.5-3.3,5.4-6,10.4-6v9.8C237.1,343.8,232.2,346.1,232.2,351.1z"/>
	<path d="M261.7,366.9c-9.5,0-16.9-6.6-16.9-15.8c0-9,7.4-15.8,16.9-15.8c9.5,0,16.9,6.7,16.9,15.8
		C278.6,360.3,271.1,366.9,261.7,366.9z M261.7,342.7c-3.9,0-6.6,2.9-6.6,8.4c0,5.6,2.8,8.4,6.6,8.4c3.9,0,6.6-2.9,6.6-8.4
		C268.3,345.6,265.6,342.7,261.7,342.7z"/>
	<path d="M283.4,379.7c-3.5,0-6.7-1.4-7.5-2.2v-6.1c1.1,0.8,2.9,1.5,4.3,1.5c2.7,0,3.8-1.3,3.8-5.7v-30.7h10.5v31.8
		C294.5,374.8,290.7,379.7,283.4,379.7z M284,332.3V325h10.5v7.3H284z"/>
	<path d="M328.5,352.3h-18c0.1,3.7,2.2,7.2,8.6,7.2c3.3,0,7.1-1.4,9.3-3.1v6.8c-2.7,2.1-6.9,3.5-12.5,3.5c-9.4,0-15.8-6.6-15.8-15.7
		c0-9.4,7.4-15.3,15.3-15.3c7.6,0,13.6,4.6,13.6,11.8C328.9,348.9,328.7,351.3,328.5,352.3z M319.8,347.4c0.7-3.1-0.7-5.8-4.2-5.8
		c-2.4,0-4.4,1.5-4.9,5.8H319.8z"/>
	<path d="M333.5,351.1c0-9.2,6.9-15.4,15.6-15.4c4.6,0,8.4,1.2,10.7,2.9v7.5c-2.4-2-5-2.7-7.8-2.7c-4.6,0-8,2.9-8,7.8
		c0,5,3.5,7.9,8,7.9c2.9,0,5.6-0.8,7.8-2.8v7.5c-2.3,1.8-6.2,2.9-10.7,2.9C340.4,366.6,333.5,360.2,333.5,351.1z"/>
	<path d="M379.3,343.2v22.6h-10.5v-22.6H363v-6.7h5.7v-8h10.5v8h5.7v6.7H379.3z"/>
	<path d="M387.5,363.3l1.5-6.8c2.7,1.6,6.1,3.5,10.7,3.5c2.6,0,4.1-0.6,4.1-2.2c0-1.7-1.8-1.8-5-2.5c-8.2-1.5-10.4-5.8-10.4-10.3
		c0-4.7,3.7-9.4,12.2-9.4c4.8,0,9,1.8,10.9,2.8l-1.6,6.5c-3-1.7-6-2.5-8.8-2.5c-2.4,0-3.5,0.6-3.5,1.8c0,1.4,1.6,1.8,3.9,2.2
		c8.8,1.6,11.5,5.8,11.5,9.9c0,6.4-4.5,10.5-12.9,10.5C394.2,366.8,389.8,364.7,387.5,363.3z"/>
</g>
<rect x="-385" y="-107" style="fill:none;" width="1" height="9"/>
</svg>
