<?xml version="1.0" encoding="utf-8"?>
<!-- Generator: Adobe Illustrator 23.0.6, SVG Export Plug-In . SVG Version: 6.00 Build 0)  -->
<svg version="1.1" id="Layer_1" xmlns="http://www.w3.org/2000/svg" xmlns:xlink="http://www.w3.org/1999/xlink" x="0px" y="0px"
	 viewBox="0 0 400 485" style="enable-background:new 0 0 400 485;" xml:space="preserve">
<style type="text/css">
	.st0{display:none;fill:#FFFFFF;}
	.st1{fill:#FFFFFF;}
</style>
<path class="st0" d="M94.4,68.7c-40,22.6-54.6,63-56.8,69.4c-13.2,38.4,3.9,50.7,7.5,131.2c0.8,17.6,0,50.7-1.7,117
	c-1.5,60.5-8.5,78.2,0,90c23.5,32.5,19.4,7.4,120.3,15c103.7,7.9,164.8,28.8,191.4-2.2c30.7-35.8-6.7-72.5-3.3-202.2
	c2.6-99.4,25.9-126.3,0.8-163.8c-26.3-39.4-50.5-28.4-110.3-39.5C197.7,75.2,132.1,47.5,94.4,68.7z"/>
<path class="st1" d="M0,0h400v485H0V0z"/>
</svg>
